{
  "accessors": [
    {
      "bufferView": 1,
      "componentType": 5126,
      "count": 65532,
      "max": [
        13.278570175170898,
        23.362583160400391,
        3.8694536685943604
      ],
      "min": [
        -7.8023471832275391,
        -23.362583160400391,
        1.5338687896728516
      ],
      "type": "VEC3"
    },
    {
      "bufferView": 1,
      "byteOffset": 786384,
      "componentType": 5126,
      "count": 65532,
      "max": [
        0.99994611740112305,
        0.99998015165328979,
        0.99997007846832275
      ],
      "min": [
        -0.99999666213989258,
        -0.99998021125793457,
        -0.99999022483825684
      ],
      "type": "VEC3"
    },
    {
      "bufferView": 0,
      "componentType": 5125,
      "count": 366672,
      "max": [
        65531
      ],
      "min": [
        0
      ],
      "type": "SCALAR"
    },
    {
      "bufferView": 1,
      "byteOffset": 1572768,
      "componentType": 5126,
      "count": 65532,
      "max": [
        16.621292114257812,
        16.772251129150391,
        4.3439016342163086
      ],
      "min": [
        -16.483192443847656,
        -16.772247314453125,
        1.5123370885848999
      ],
      "type": "VEC3"
    },
    {
      "bufferView": 1,
      "byteOffset": 2359152,
      "componentType": 5126,
      "count": 65532,
      "max": [
        0.99997103214263916,
        0.99997645616531372,
        0.99999725818634033
      ],
      "min": [
        -0.99999344348907471,
        -0.99999105930328369,
        -0.99998182058334351
      ],
      "type": "VEC3"
    },
    {
      "bufferView": 0,
      "byteOffset": 1466688,
      "componentType": 5125,
      "count": 325023,
      "max": [
        65531
      ],
      "min": [
        0
      ],
      "type": "SCALAR"
    },
    {
      "bufferView": 1,
      "byteOffset": 3145536,
      "componentType": 5126,
      "count": 42391,
      "max": [
        16.88592529296875,
        0.52923804521560669,
        5.1473007202148438
      ],
      "min": [
        -4.9929194450378418,
        -0.59713393449783325,
        3.1932592391967773
      ],
      "type": "VEC3"
    },
    {
      "bufferView": 1,
      "byteOffset": 3654228,
      "componentType": 5126,
      "count": 42391,
      "max": [
        0.99997091293334961,
        0.99999988079071045,
        0.99998956918716431
      ],
      "min": [
        -0.99998432397842407,
        -0.99999314546585083,
        -0.99998229742050171
      ],
      "type": "VEC3"
    },
    {
      "bufferView": 0,
      "byteOffset": 2766780,
      "componentType": 5125,
      "count": 208578,
      "max": [
        42390
      ],
      "min": [
        0
      ],
      "type": "SCALAR"
    }
  ],
  "asset": {
    "extras": {
      "author": "geolab.unilasalle (https://sketchfab.com/geolab.unilasalle)",
      "license": "CC-BY-4.0 (http://creativecommons.org/licenses/by/4.0/)",
      "source": "https://sketchfab.com/3d-models/pterosaur-ca7db9cb6c3e4e7cab83acdb20a4352f",
      "title": "Pterosaur"
    },
    "generator": "Sketchfab-5.54.1",
    "version": "2.0"
  },
  "bufferViews": [
    {
      "buffer": 0,
      "byteLength": 3601092,
      "byteOffset": 0,
      "name": "floatBufferViews",
      "target": 34963
    },
    {
      "buffer": 0,
      "byteLength": 4162920,
      "byteOffset": 3601092,
      "byteStride": 12,
      "name": "floatBufferViews",
      "target": 34962
    }
  ],
  "buffers": [
    {
      "byteLength": 7764012,
      "uri": "scene.bin"
    }
  ],
  "materials": [
    {
      "doubleSided": true,
      "name": "Scene_-_Root",
      "pbrMetallicRoughness": {
        "baseColorFactor": [
          0.64773639599999999,
          0.49204518889999999,
          0.26478273689999998,
          1
        ],
        "metallicFactor": 0,
        "roughnessFactor": 0.59999999999999998
      }
    }
  ],
  "meshes": [
    {
      "primitives": [
        {
          "attributes": {
            "NORMAL": 1,
            "POSITION": 0
          },
          "indices": 2,
          "material": 0,
          "mode": 4
        }
      ]
    },
    {
      "primitives": [
        {
          "attributes": {
            "NORMAL": 4,
            "POSITION": 3
          },
          "indices": 5,
          "material": 0,
          "mode": 4
        }
      ]
    },
    {
      "primitives": [
        {
          "attributes": {
            "NORMAL": 7,
            "POSITION": 6
          },
          "indices": 8,
          "material": 0,
          "mode": 4
        }
      ]
    }
  ],
  "nodes": [
    {
      "children": [
        1
      ],
      "name": "RootNode (gltf orientation matrix)",
      "rotation": [
        -0.70710678118654746,
        -0,
        -0,
        0.70710678118654757
      ]
    },
    {
      "children": [
        2
      ],
      "name": "RootNode (model correction matrix)"
    },
    {
      "children": [
        3,
        4,
        5
      ],
      "name": "Pterosaure Light .stl.cleaner.materialmerger.gles"
    },
    {
      "mesh": 0,
      "name": ""
    },
    {
      "mesh": 1,
      "name": ""
    },
    {
      "mesh": 2,
      "name": ""
    }
  ],
  "scene": 0,
  "scenes": [
    {
      "name": "OSG_Scene",
      "nodes": [
        0
      ]
    }
  ]
}

