{
  "accessors": [
    {
      "bufferView": 2,
      "componentType": 5126,
      "count": 36885,
      "max": [
        1.0273689031600952,
        1.0060067176818848,
        2.0897674560546875
      ],
      "min": [
        -1.0273689031600952,
        -1.0487310886383057,
        -1.2075085639953613
      ],
      "type": "VEC3"
    },
    {
      "bufferView": 2,
      "byteOffset": 442620,
      "componentType": 5126,
      "count": 36885,
      "max": [
        1,
        1,
        1
      ],
      "min": [
        -1,
        -1,
        -1
      ],
      "type": "VEC3"
    },
    {
      "bufferView": 3,
      "componentType": 5126,
      "count": 36885,
      "max": [
        1,
        0.99999988079071045,
        1,
        1
      ],
      "min": [
        -0.99999988079071045,
        -0.99999994039535522,
        -1,
        -1
      ],
      "type": "VEC4"
    },
    {
      "bufferView": 1,
      "componentType": 5126,
      "count": 36885,
      "max": [
        0.9917946457862854,
        0.9921875
      ],
      "min": [
        0.0078125,
        0.0078125
      ],
      "type": "VEC2"
    },
    {
      "bufferView": 0,
      "componentType": 5125,
      "count": 146127,
      "max": [
        36884
      ],
      "min": [
        0
      ],
      "type": "SCALAR"
    }
  ],
  "asset": {
    "extras": {
      "author": "MartianDays (https://sketchfab.com/aeries)",
      "license": "CC-BY-4.0 (http://creativecommons.org/licenses/by/4.0/)",
      "source": "https://sketchfab.com/3d-models/td-j-2s-b579558252c4459fa624c8350443fbc0",
      "title": "TD J-2S"
    },
    "generator": "Sketchfab-6.29.0",
    "version": "2.0"
  },
  "bufferViews": [
    {
      "buffer": 0,
      "byteLength": 584508,
      "byteOffset": 0,
      "name": "floatBufferViews",
      "target": 34963
    },
    {
      "buffer": 0,
      "byteLength": 295080,
      "byteOffset": 584508,
      "byteStride": 8,
      "name": "floatBufferViews",
      "target": 34962
    },
    {
      "buffer": 0,
      "byteLength": 885240,
      "byteOffset": 879588,
      "byteStride": 12,
      "name": "floatBufferViews",
      "target": 34962
    },
    {
      "buffer": 0,
      "byteLength": 590160,
      "byteOffset": 1764828,
      "byteStride": 16,
      "name": "floatBufferViews",
      "target": 34962
    }
  ],
  "buffers": [
    {
      "byteLength": 2354988,
      "uri": "scene.bin"
    }
  ],
  "images": [
    {
      "uri": "textures/material_baseColor.png"
    },
    {
      "uri": "textures/material_metallicRoughness.png"
    },
    {
      "uri": "textures/material_normal.png"
    }
  ],
  "materials": [
    {
      "doubleSided": true,
      "name": "material",
      "normalTexture": {
        "index": 2,
        "scale": 1,
        "texCoord": 0
      },
      "pbrMetallicRoughness": {
        "baseColorFactor": [
          1,
          1,
          1,
          1
        ],
        "baseColorTexture": {
          "index": 0,
          "texCoord": 0
        },
        "metallicFactor": 1,
        "metallicRoughnessTexture": {
          "index": 1,
          "texCoord": 0
        },
        "roughnessFactor": 1
      }
    }
  ],
  "meshes": [
    {
      "name": "J-2S_J-2_0",
      "primitives": [
        {
          "attributes": {
            "NORMAL": 1,
            "POSITION": 0,
            "TANGENT": 2,
            "TEXCOORD_0": 3
          },
          "indices": 4,
          "material": 0,
          "mode": 4
        }
      ]
    }
  ],
  "nodes": [
    {
      "children": [
        1
      ],
      "name": "RootNode (gltf orientation matrix)",
      "rotation": [
        -0.70710678118654746,
        -0,
        -0,
        0.70710678118654757
      ]
    },
    {
      "children": [
        2
      ],
      "matrix": [
        -2.2204460492503131e-16,
        -1,
        2.832769343193999e-16,
        0,
        -1,
        2.2204460492503131e-16,
        1.6081226229577292e-16,
        0,
        -1.6081226229577292e-16,
        -2.832769343193999e-16,
        -1,
        0,
        -0.043064948171377182,
        -0.043064948171377182,
        -328.45550537109375,
        1
      ],
      "name": "RootNode (model correction matrix)"
    },
    {
      "children": [
        3
      ],
      "matrix": [
        1,
        0,
        0,
        0,
        0,
        -1,
        0,
        0,
        0,
        0,
        -1,
        0,
        0,
        0,
        0,
        1
      ],
      "name": "e3995dcfb53f4c94a8a385fcd1b98e38.fbx"
    },
    {
      "children": [
        4
      ],
      "name": "RootNode"
    },
    {
      "children": [
        5
      ],
      "matrix": [
        97.993476867675781,
        0,
        0,
        0,
        0,
        97.993476867675781,
        0,
        0,
        0,
        0,
        97.993476867675781,
        0,
        0,
        2.1362125873565674,
        120.99999237060547,
        1
      ],
      "name": "J-2S"
    },
    {
      "mesh": 0,
      "name": "J-2S_J-2_0"
    }
  ],
  "samplers": [
    {
      "magFilter": 9729,
      "minFilter": 9987,
      "wrapS": 10497,
      "wrapT": 10497
    }
  ],
  "scene": 0,
  "scenes": [
    {
      "name": "OSG_Scene",
      "nodes": [
        0
      ]
    }
  ],
  "textures": [
    {
      "sampler": 0,
      "source": 0
    },
    {
      "sampler": 0,
      "source": 1
    },
    {
      "sampler": 0,
      "source": 2
    }
  ]
}

