{
  "accessors": [
    {
      "bufferView": 2,
      "componentType": 5126,
      "count": 65532,
      "max": [
        1.4009640216827393,
        0.66433298587799072,
        1.5350909233093262
      ],
      "min": [
        -0.81156200170516968,
        -0.74549901485443115,
        -2.7898800373077393
      ],
      "type": "VEC3"
    },
    {
      "bufferView": 2,
      "byteOffset": 786384,
      "componentType": 5126,
      "count": 65532,
      "max": [
        1,
        0.99999576807022095,
        0.99995577335357666
      ],
      "min": [
        -0.99999821186065674,
        -0.99999850988388062,
        -0.99999135732650757
      ],
      "type": "VEC3"
    },
    {
      "bufferView": 3,
      "componentType": 5126,
      "count": 65532,
      "max": [
        0.99994504451751709,
        0.9999992847442627,
        0.99997740983963013,
        1
      ],
      "min": [
        -0.99998998641967773,
        -0.99998003244400024,
        -0.99999880790710449,
        -1
      ],
      "type": "VEC4"
    },
    {
      "bufferView": 1,
      "componentType": 5126,
      "count": 65532,
      "max": [
        0.99784702062606812,
        0.99804699420928955
      ],
      "min": [
        0.0019529999699443579,
        0.0019530057907104492
      ],
      "type": "VEC2"
    },
    {
      "bufferView": 1,
      "byteOffset": 524256,
      "componentType": 5126,
      "count": 65532,
      "max": [
        0.99784702062606812,
        0.99804699420928955
      ],
      "min": [
        0.0019529999699443579,
        0.0019530057907104492
      ],
      "type": "VEC2"
    },
    {
      "bufferView": 1,
      "byteOffset": 1048512,
      "componentType": 5126,
      "count": 65532,
      "max": [
        0.99784702062606812,
        0.99804699420928955
      ],
      "min": [
        0.0019529999699443579,
        0.0019530057907104492
      ],
      "type": "VEC2"
    },
    {
      "bufferView": 0,
      "componentType": 5125,
      "count": 282678,
      "max": [
        65531
      ],
      "min": [
        0
      ],
      "type": "SCALAR"
    },
    {
      "bufferView": 2,
      "byteOffset": 1572768,
      "componentType": 5126,
      "count": 36984,
      "max": [
        1.343735933303833,
        0.83131301403045654,
        2.9455599784851074
      ],
      "min": [
        -1.4025540351867676,
        -0.83038300275802612,
        -2.945904016494751
      ],
      "type": "VEC3"
    },
    {
      "bufferView": 2,
      "byteOffset": 2016576,
      "componentType": 5126,
      "count": 36984,
      "max": [
        1,
        0.99996697902679443,
        0.99983310699462891
      ],
      "min": [
        -0.99984848499298096,
        -0.9999995231628418,
        -0.9999883770942688
      ],
      "type": "VEC3"
    },
    {
      "bufferView": 3,
      "byteOffset": 1048512,
      "componentType": 5126,
      "count": 36984,
      "max": [
        0.99999302625656128,
        0.99993765354156494,
        0.99994415044784546,
        1
      ],
      "min": [
        -0.99997317790985107,
        -0.99989867210388184,
        -0.99997717142105103,
        -1
      ],
      "type": "VEC4"
    },
    {
      "bufferView": 1,
      "byteOffset": 1572768,
      "componentType": 5126,
      "count": 36984,
      "max": [
        0.99777001142501831,
        0.99804699420928955
      ],
      "min": [
        0.0019529999699443579,
        0.0020080208778381348
      ],
      "type": "VEC2"
    },
    {
      "bufferView": 1,
      "byteOffset": 1868640,
      "componentType": 5126,
      "count": 36984,
      "max": [
        0.99777001142501831,
        0.99804699420928955
      ],
      "min": [
        0.0019529999699443579,
        0.0020080208778381348
      ],
      "type": "VEC2"
    },
    {
      "bufferView": 1,
      "byteOffset": 2164512,
      "componentType": 5126,
      "count": 36984,
      "max": [
        0.99777001142501831,
        0.99804699420928955
      ],
      "min": [
        0.0019529999699443579,
        0.0020080208778381348
      ],
      "type": "VEC2"
    },
    {
      "bufferView": 0,
      "byteOffset": 1130712,
      "componentType": 5125,
      "count": 167316,
      "max": [
        36983
      ],
      "min": [
        0
      ],
      "type": "SCALAR"
    }
  ],
  "asset": {
    "extras": {
      "author": "Smithsonian Institution (https://sketchfab.com/Smithsonian)",
      "license": "CC0-1.0 (http://creativecommons.org/publicdomain/zero/1.0/)",
      "source": "https://sketchfab.com/3d-models/triceratops-horridus-marsh-e9c507f179ed4455aac3b208c9e6c973",
      "title": "Triceratops Horridus Marsh"
    },
    "generator": "Sketchfab-7.79.0",
    "version": "2.0"
  },
  "bufferViews": [
    {
      "buffer": 0,
      "byteLength": 1799976,
      "byteOffset": 0,
      "name": "floatBufferViews",
      "target": 34963
    },
    {
      "buffer": 0,
      "byteLength": 2460384,
      "byteOffset": 1799976,
      "byteStride": 8,
      "name": "floatBufferViews",
      "target": 34962
    },
    {
      "buffer": 0,
      "byteLength": 2460384,
      "byteOffset": 4260360,
      "byteStride": 12,
      "name": "floatBufferViews",
      "target": 34962
    },
    {
      "buffer": 0,
      "byteLength": 1640256,
      "byteOffset": 6720744,
      "byteStride": 16,
      "name": "floatBufferViews",
      "target": 34962
    }
  ],
  "buffers": [
    {
      "byteLength": 8361000,
      "uri": "scene.bin"
    }
  ],
  "images": [
    {
      "uri": "textures/default_baseColor.jpeg"
    },
    {
      "uri": "textures/default_metallicRoughness.png"
    },
    {
      "uri": "textures/default_normal.jpeg"
    }
  ],
  "materials": [
    {
      "doubleSided": false,
      "emissiveFactor": [
        0,
        0,
        0
      ],
      "name": "default",
      "normalTexture": {
        "index": 2,
        "scale": 1,
        "texCoord": 2
      },
      "occlusionTexture": {
        "index": 1,
        "strength": 1,
        "texCoord": 1
      },
      "pbrMetallicRoughness": {
        "baseColorFactor": [
          1,
          1,
          1,
          1
        ],
        "baseColorTexture": {
          "index": 0,
          "texCoord": 0
        },
        "metallicFactor": 0.10000000000000001,
        "metallicRoughnessTexture": {
          "index": 1,
          "texCoord": 1
        },
        "roughnessFactor": 0.54106061530835703
      }
    }
  ],
  "meshes": [
    {
      "primitives": [
        {
          "attributes": {
            "NORMAL": 1,
            "POSITION": 0,
            "TANGENT": 2,
            "TEXCOORD_0": 3,
            "TEXCOORD_1": 4,
            "TEXCOORD_2": 5
          },
          "indices": 6,
          "material": 0,
          "mode": 4
        }
      ]
    },
    {
      "primitives": [
        {
          "attributes": {
            "NORMAL": 8,
            "POSITION": 7,
            "TANGENT": 9,
            "TEXCOORD_0": 10,
            "TEXCOORD_1": 11,
            "TEXCOORD_2": 12
          },
          "indices": 13,
          "material": 0,
          "mode": 4
        }
      ]
    }
  ],
  "nodes": [
    {
      "children": [
        1
      ],
      "name": "RootNode (gltf orientation matrix)",
      "rotation": [
        -0.70710678118654746,
        -0,
        -0,
        0.70710678118654757
      ]
    },
    {
      "children": [
        2
      ],
      "matrix": [
        0.99876946210861206,
        0,
        -0.049594514071941376,
        0,
        0,
        1,
        0,
        0,
        0.049594514071941376,
        0,
        0.99876946210861206,
        0,
        -2.3996473828447051e-05,
        0,
        -3.864978498313576e-05,
        1
      ],
      "name": "RootNode (model correction matrix)"
    },
    {
      "children": [
        3
      ],
      "name": "root"
    },
    {
      "children": [
        4
      ],
      "matrix": [
        1,
        0,
        0,
        0,
        0,
        2.2204460492503131e-16,
        1,
        0,
        0,
        -1,
        2.2204460492503131e-16,
        0,
        0,
        0,
        0,
        1
      ],
      "name": "GLTF_SceneRootNode"
    },
    {
      "children": [
        5,
        6
      ],
      "name": "_0"
    },
    {
      "mesh": 0,
      "name": ""
    },
    {
      "mesh": 1,
      "name": ""
    }
  ],
  "samplers": [
    {
      "magFilter": 9729,
      "minFilter": 9987,
      "wrapS": 10497,
      "wrapT": 10497
    }
  ],
  "scene": 0,
  "scenes": [
    {
      "name": "OSG_Scene",
      "nodes": [
        0
      ]
    }
  ],
  "textures": [
    {
      "sampler": 0,
      "source": 0
    },
    {
      "sampler": 0,
      "source": 1
    },
    {
      "sampler": 0,
      "source": 2
    }
  ]
}

