{
  "accessors": [
    {
      "bufferView": 2,
      "componentType": 5126,
      "count": 1125,
      "max": [
        0.95507544279098511,
        0.9483066201210022,
        0.046081505715847015
      ],
      "min": [
        -1.0449246168136597,
        -1.051693320274353,
        -0.15936090052127838
      ],
      "type": "VEC3"
    },
    {
      "bufferView": 2,
      "byteOffset": 13500,
      "componentType": 5126,
      "count": 1125,
      "max": [
        0.99788445234298706,
        0.99754679203033447,
        1
      ],
      "min": [
        -0.99541229009628296,
        -0.9959111213684082,
        -1
      ],
      "type": "VEC3"
    },
    {
      "bufferView": 3,
      "componentType": 5126,
      "count": 1125,
      "max": [
        1,
        0.78634196519851685,
        0.63226890563964844,
        1
      ],
      "min": [
        0,
        -0.84483784437179565,
        -0.52889978885650635,
        -1
      ],
      "type": "VEC4"
    },
    {
      "bufferView": 1,
      "componentType": 5126,
      "count": 1125,
      "max": [
        1,
        1
      ],
      "min": [
        0,
        0
      ],
      "type": "VEC2"
    },
    {
      "bufferView": 0,
      "componentType": 5125,
      "count": 1773,
      "max": [
        1124
      ],
      "min": [
        0
      ],
      "type": "SCALAR"
    },
    {
      "bufferView": 2,
      "byteOffset": 27000,
      "componentType": 5126,
      "count": 3119,
      "max": [
        0.10992610454559326,
        0.096698589622974396,
        0.21616382896900177
      ],
      "min": [
        -0.18288758397102356,
        -0.18965637683868408,
        -0.06311430037021637
      ],
      "type": "VEC3"
    },
    {
      "bufferView": 2,
      "byteOffset": 64428,
      "componentType": 5126,
      "count": 3119,
      "max": [
        1,
        1,
        1
      ],
      "min": [
        -1,
        -1,
        -1
      ],
      "type": "VEC3"
    },
    {
      "bufferView": 3,
      "byteOffset": 18000,
      "componentType": 5126,
      "count": 3119,
      "max": [
        1,
        1,
        1,
        1
      ],
      "min": [
        -1,
        -1,
        -1,
        -1
      ],
      "type": "VEC4"
    },
    {
      "bufferView": 1,
      "byteOffset": 9000,
      "componentType": 5126,
      "count": 3119,
      "max": [
        1,
        1
      ],
      "min": [
        0,
        0
      ],
      "type": "VEC2"
    },
    {
      "bufferView": 0,
      "byteOffset": 7092,
      "componentType": 5125,
      "count": 6726,
      "max": [
        3118
      ],
      "min": [
        0
      ],
      "type": "SCALAR"
    },
    {
      "bufferView": 2,
      "byteOffset": 101856,
      "componentType": 5126,
      "count": 4933,
      "max": [
        0.10828174650669098,
        0.082755975425243378,
        0.18577153980731964
      ],
      "min": [
        -0.15650233626365662,
        -0.17863965034484863,
        -0.016303293406963348
      ],
      "type": "VEC3"
    },
    {
      "bufferView": 2,
      "byteOffset": 161052,
      "componentType": 5126,
      "count": 4933,
      "max": [
        1,
        1,
        1
      ],
      "min": [
        -1,
        -1,
        -1
      ],
      "type": "VEC3"
    },
    {
      "bufferView": 3,
      "byteOffset": 67904,
      "componentType": 5126,
      "count": 4933,
      "max": [
        1,
        1,
        1,
        1
      ],
      "min": [
        -0.95583081245422363,
        -1,
        -1,
        -1
      ],
      "type": "VEC4"
    },
    {
      "bufferView": 1,
      "byteOffset": 33952,
      "componentType": 5126,
      "count": 4933,
      "max": [
        1,
        1
      ],
      "min": [
        0,
        0
      ],
      "type": "VEC2"
    },
    {
      "bufferView": 0,
      "byteOffset": 33996,
      "componentType": 5125,
      "count": 8793,
      "max": [
        4932
      ],
      "min": [
        0
      ],
      "type": "SCALAR"
    },
    {
      "bufferView": 2,
      "byteOffset": 220248,
      "componentType": 5126,
      "count": 64647,
      "max": [
        0.15295781195163727,
        0.11895313113927841,
        0.39793223142623901
      ],
      "min": [
        -0.17632271349430084,
        -0.22880643606185913,
        -0.063385576009750366
      ],
      "type": "VEC3"
    },
    {
      "bufferView": 2,
      "byteOffset": 996012,
      "componentType": 5126,
      "count": 64647,
      "max": [
        1,
        1,
        1
      ],
      "min": [
        -1,
        -1,
        -1
      ],
      "type": "VEC3"
    },
    {
      "bufferView": 3,
      "byteOffset": 146832,
      "componentType": 5126,
      "count": 64647,
      "max": [
        1,
        1,
        1,
        1
      ],
      "min": [
        -1,
        -1,
        -1,
        -1
      ],
      "type": "VEC4"
    },
    {
      "bufferView": 1,
      "byteOffset": 73416,
      "componentType": 5126,
      "count": 64647,
      "max": [
        1.0000002384185791,
        1.0000003576278687
      ],
      "min": [
        0,
        0
      ],
      "type": "VEC2"
    },
    {
      "bufferView": 0,
      "byteOffset": 69168,
      "componentType": 5125,
      "count": 147582,
      "max": [
        64646
      ],
      "min": [
        0
      ],
      "type": "SCALAR"
    },
    {
      "bufferView": 2,
      "byteOffset": 1771776,
      "componentType": 5126,
      "count": 1188,
      "max": [
        0.094038024544715881,
        0.09193035215139389,
        0.2101358026266098
      ],
      "min": [
        -0.17782896757125854,
        -0.18380150198936462,
        -0.060384541749954224
      ],
      "type": "VEC3"
    },
    {
      "bufferView": 2,
      "byteOffset": 1786032,
      "componentType": 5126,
      "count": 1188,
      "max": [
        1,
        1,
        1
      ],
      "min": [
        -1,
        -1,
        -1
      ],
      "type": "VEC3"
    },
    {
      "bufferView": 3,
      "byteOffset": 1181184,
      "componentType": 5126,
      "count": 1188,
      "max": [
        1,
        0.99809509515762329,
        1,
        1
      ],
      "min": [
        -1,
        -0.99809515476226807,
        -0.89081162214279175,
        -1
      ],
      "type": "VEC4"
    },
    {
      "bufferView": 1,
      "byteOffset": 590592,
      "componentType": 5126,
      "count": 1188,
      "max": [
        0.875,
        1
      ],
      "min": [
        0.125,
        0
      ],
      "type": "VEC2"
    },
    {
      "bufferView": 0,
      "byteOffset": 659496,
      "componentType": 5125,
      "count": 2226,
      "max": [
        1187
      ],
      "min": [
        0
      ],
      "type": "SCALAR"
    },
    {
      "bufferView": 2,
      "byteOffset": 1800288,
      "componentType": 5126,
      "count": 24,
      "max": [
        0.19444505870342255,
        0.18767628073692322,
        -0.062905281782150269
      ],
      "min": [
        -0.28429421782493591,
        -0.29106301069259644,
        -0.092288389801979065
      ],
      "type": "VEC3"
    },
    {
      "bufferView": 2,
      "byteOffset": 1800576,
      "componentType": 5126,
      "count": 24,
      "max": [
        1,
        1,
        1
      ],
      "min": [
        -1,
        -1,
        -1
      ],
      "type": "VEC3"
    },
    {
      "bufferView": 3,
      "byteOffset": 1200192,
      "componentType": 5126,
      "count": 24,
      "max": [
        1,
        0,
        0,
        1
      ],
      "min": [
        -1,
        0,
        -1,
        1
      ],
      "type": "VEC4"
    },
    {
      "bufferView": 1,
      "byteOffset": 600096,
      "componentType": 5126,
      "count": 24,
      "max": [
        0.875,
        1
      ],
      "min": [
        0.125,
        0
      ],
      "type": "VEC2"
    },
    {
      "bufferView": 0,
      "byteOffset": 668400,
      "componentType": 5125,
      "count": 36,
      "max": [
        23
      ],
      "min": [
        0
      ],
      "type": "SCALAR"
    },
    {
      "bufferView": 2,
      "byteOffset": 1800864,
      "componentType": 5126,
      "count": 4202,
      "max": [
        0.11571808159351349,
        0.07354273647069931,
        0.20654167234897614
      ],
      "min": [
        -0.17250727117061615,
        -0.22711765766143799,
        -0.063065066933631897
      ],
      "type": "VEC3"
    },
    {
      "bufferView": 2,
      "byteOffset": 1851288,
      "componentType": 5126,
      "count": 4202,
      "max": [
        1,
        1,
        1
      ],
      "min": [
        -1,
        -1,
        -1
      ],
      "type": "VEC3"
    },
    {
      "bufferView": 3,
      "byteOffset": 1200576,
      "componentType": 5126,
      "count": 4202,
      "max": [
        1,
        1,
        1,
        1
      ],
      "min": [
        -1,
        -1,
        -1,
        -1
      ],
      "type": "VEC4"
    },
    {
      "bufferView": 1,
      "byteOffset": 600288,
      "componentType": 5126,
      "count": 4202,
      "max": [
        1,
        1
      ],
      "min": [
        0,
        0
      ],
      "type": "VEC2"
    },
    {
      "bufferView": 0,
      "byteOffset": 668544,
      "componentType": 5125,
      "count": 10914,
      "max": [
        4201
      ],
      "min": [
        0
      ],
      "type": "SCALAR"
    },
    {
      "bufferView": 2,
      "byteOffset": 1901712,
      "componentType": 5126,
      "count": 4,
      "max": [
        0.12524572014808655,
        -0.10298639535903931,
        0.048973768949508667
      ],
      "min": [
        0.12374380230903625,
        -0.10821761190891266,
        0.046383827924728394
      ],
      "type": "VEC3"
    },
    {
      "bufferView": 2,
      "byteOffset": 1901760,
      "componentType": 5126,
      "count": 4,
      "max": [
        0.86506706476211548,
        0,
        -0.50165611505508423
      ],
      "min": [
        0.86506706476211548,
        0,
        -0.50165611505508423
      ],
      "type": "VEC3"
    },
    {
      "bufferView": 3,
      "byteOffset": 1267808,
      "componentType": 5126,
      "count": 4,
      "max": [
        -0.46503660082817078,
        -0.23834143579006195,
        -0.80191946029663086,
        1
      ],
      "min": [
        -0.48719912767410278,
        -0.37505492568016052,
        -0.84013712406158447,
        1
      ],
      "type": "VEC4"
    },
    {
      "bufferView": 1,
      "byteOffset": 633904,
      "componentType": 5126,
      "count": 4,
      "max": [
        0.37500002980232239,
        0.53715932369232178
      ],
      "min": [
        0.37499994039535522,
        0.52354264259338379
      ],
      "type": "VEC2"
    },
    {
      "bufferView": 0,
      "byteOffset": 712200,
      "componentType": 5125,
      "count": 6,
      "max": [
        3
      ],
      "min": [
        0
      ],
      "type": "SCALAR"
    }
  ],
  "asset": {
    "extras": {
      "author": "RyeNguyen (https://sketchfab.com/RyeNguyen)",
      "license": "CC-BY-4.0 (http://creativecommons.org/licenses/by/4.0/)",
      "source": "https://sketchfab.com/3d-models/military-base-d575dee4156347a0ba7470eaf2d6c0d0",
      "title": "Military Base"
    },
    "generator": "Sketchfab-7.32.0",
    "version": "2.0"
  },
  "bufferViews": [
    {
      "buffer": 0,
      "byteLength": 712224,
      "byteOffset": 0,
      "name": "floatBufferViews",
      "target": 34963
    },
    {
      "buffer": 0,
      "byteLength": 633936,
      "byteOffset": 712224,
      "byteStride": 8,
      "name": "floatBufferViews",
      "target": 34962
    },
    {
      "buffer": 0,
      "byteLength": 1901808,
      "byteOffset": 1346160,
      "byteStride": 12,
      "name": "floatBufferViews",
      "target": 34962
    },
    {
      "buffer": 0,
      "byteLength": 1267872,
      "byteOffset": 3247968,
      "byteStride": 16,
      "name": "floatBufferViews",
      "target": 34962
    }
  ],
  "buffers": [
    {
      "byteLength": 4515840,
      "uri": "scene.bin"
    }
  ],
  "materials": [
    {
      "doubleSided": true,
      "emissiveFactor": [
        0,
        0,
        0
      ],
      "name": "sand",
      "pbrMetallicRoughness": {
        "baseColorFactor": [
          0.80000000000000004,
          0.73166299999999995,
          0.44875999999999999,
          1
        ],
        "metallicFactor": 0,
        "roughnessFactor": 0.8377138224546512
      }
    },
    {
      "doubleSided": true,
      "emissiveFactor": [
        0,
        0,
        0
      ],
      "name": "yellow",
      "pbrMetallicRoughness": {
        "baseColorFactor": [
          0.70611699999999999,
          0.57504,
          0.311803,
          1
        ],
        "metallicFactor": 0,
        "roughnessFactor": 0.85697398557712146
      }
    },
    {
      "doubleSided": true,
      "emissiveFactor": [
        0,
        0,
        0
      ],
      "name": "black",
      "pbrMetallicRoughness": {
        "baseColorFactor": [
          0,
          0,
          0,
          1
        ],
        "metallicFactor": 0,
        "roughnessFactor": 1
      }
    },
    {
      "doubleSided": true,
      "emissiveFactor": [
        0,
        0,
        0
      ],
      "name": "grey",
      "pbrMetallicRoughness": {
        "baseColorFactor": [
          0.23787800000000001,
          0.23787800000000001,
          0.23787800000000001,
          1
        ],
        "metallicFactor": 0.40772728197502367,
        "roughnessFactor": 0.068333342581084283
      }
    },
    {
      "doubleSided": true,
      "emissiveFactor": [
        0,
        0,
        0
      ],
      "name": "yellow_dark",
      "pbrMetallicRoughness": {
        "baseColorFactor": [
          0.34027099999999999,
          0.183115,
          0.057514700000000002,
          1
        ],
        "metallicFactor": 0,
        "roughnessFactor": 0.95361097559923813
      }
    },
    {
      "doubleSided": true,
      "emissiveFactor": [
        0,
        0,
        0
      ],
      "name": "floor",
      "pbrMetallicRoughness": {
        "baseColorFactor": [
          0.468532,
          0.38486399999999998,
          0.47392800000000002,
          1
        ],
        "metallicFactor": 0,
        "roughnessFactor": 0.90852643083386797
      }
    },
    {
      "doubleSided": true,
      "emissiveFactor": [
        0,
        0,
        0
      ],
      "name": "grey_dark",
      "pbrMetallicRoughness": {
        "baseColorFactor": [
          0.093699099999999994,
          0.093699099999999994,
          0.093699099999999994,
          1
        ],
        "metallicFactor": 0,
        "roughnessFactor": 0.97904824429694493
      }
    },
    {
      "doubleSided": true,
      "emissiveFactor": [
        0,
        0,
        0
      ],
      "name": "emission",
      "pbrMetallicRoughness": {
        "baseColorFactor": [
          0.80000000000000004,
          0.80000000000000004,
          0.80000000000000004,
          1
        ],
        "metallicFactor": 0,
        "roughnessFactor": 0.82111456180001685
      }
    }
  ],
  "meshes": [
    {
      "name": "Plane_sand_0",
      "primitives": [
        {
          "attributes": {
            "NORMAL": 1,
            "POSITION": 0,
            "TANGENT": 2,
            "TEXCOORD_0": 3
          },
          "indices": 4,
          "material": 0,
          "mode": 4
        }
      ]
    },
    {
      "name": "Plane_yellow_0",
      "primitives": [
        {
          "attributes": {
            "NORMAL": 6,
            "POSITION": 5,
            "TANGENT": 7,
            "TEXCOORD_0": 8
          },
          "indices": 9,
          "material": 1,
          "mode": 4
        }
      ]
    },
    {
      "name": "Plane_black_0",
      "primitives": [
        {
          "attributes": {
            "NORMAL": 11,
            "POSITION": 10,
            "TANGENT": 12,
            "TEXCOORD_0": 13
          },
          "indices": 14,
          "material": 2,
          "mode": 4
        }
      ]
    },
    {
      "name": "Plane_grey_0",
      "primitives": [
        {
          "attributes": {
            "NORMAL": 16,
            "POSITION": 15,
            "TANGENT": 17,
            "TEXCOORD_0": 18
          },
          "indices": 19,
          "material": 3,
          "mode": 4
        }
      ]
    },
    {
      "name": "Plane_yellow dark_0",
      "primitives": [
        {
          "attributes": {
            "NORMAL": 21,
            "POSITION": 20,
            "TANGENT": 22,
            "TEXCOORD_0": 23
          },
          "indices": 24,
          "material": 4,
          "mode": 4
        }
      ]
    },
    {
      "name": "Plane_floor_0",
      "primitives": [
        {
          "attributes": {
            "NORMAL": 26,
            "POSITION": 25,
            "TANGENT": 27,
            "TEXCOORD_0": 28
          },
          "indices": 29,
          "material": 5,
          "mode": 4
        }
      ]
    },
    {
      "name": "Plane_grey dark_0",
      "primitives": [
        {
          "attributes": {
            "NORMAL": 31,
            "POSITION": 30,
            "TANGENT": 32,
            "TEXCOORD_0": 33
          },
          "indices": 34,
          "material": 6,
          "mode": 4
        }
      ]
    },
    {
      "name": "Plane_emission_0",
      "primitives": [
        {
          "attributes": {
            "NORMAL": 36,
            "POSITION": 35,
            "TANGENT": 37,
            "TEXCOORD_0": 38
          },
          "indices": 39,
          "material": 7,
          "mode": 4
        }
      ]
    }
  ],
  "nodes": [
    {
      "children": [
        1
      ],
      "name": "RootNode (gltf orientation matrix)",
      "rotation": [
        -0.70710678118654746,
        -0,
        -0,
        0.70710678118654757
      ]
    },
    {
      "children": [
        2
      ],
      "name": "RootNode (model correction matrix)"
    },
    {
      "children": [
        3
      ],
      "matrix": [
        1,
        0,
        0,
        0,
        0,
        0,
        1,
        0,
        0,
        -1,
        0,
        0,
        0,
        0,
        0,
        1
      ],
      "name": "340a275521664fde9438124bd8f87169.fbx"
    },
    {
      "children": [
        4,
        13,
        16,
        19,
        22
      ],
      "name": "RootNode"
    },
    {
      "children": [
        5,
        6,
        7,
        8,
        9,
        10,
        11,
        12
      ],
      "matrix": [
        4678.13134765625,
        0,
        0,
        0,
        0,
        -0.00076216433744438013,
        -4678.1313476561882,
        0,
        0,
        4678.1313476561882,
        -0.00076216433744438013,
        0,
        210.16311645507812,
        305.1156005859375,
        -241.82832336425781,
        1
      ],
      "name": "Plane"
    },
    {
      "mesh": 0,
      "name": "Plane_sand_0"
    },
    {
      "mesh": 1,
      "name": "Plane_yellow_0"
    },
    {
      "mesh": 2,
      "name": "Plane_black_0"
    },
    {
      "mesh": 3,
      "name": "Plane_grey_0"
    },
    {
      "mesh": 4,
      "name": "Plane_yellow dark_0"
    },
    {
      "mesh": 5,
      "name": "Plane_floor_0"
    },
    {
      "mesh": 6,
      "name": "Plane_grey dark_0"
    },
    {
      "mesh": 7,
      "name": "Plane_emission_0"
    },
    {
      "children": [
        14
      ],
      "matrix": [
        -0.65685197181185495,
        -4.8462264565128388,
        -19.401514890334081,
        0,
        -7.9693290263970979,
        17.867370223676755,
        -4.1932113683461321,
        0,
        18.341063601850465,
        7.5899497896243568,
        -2.5168127098369517,
        0,
        793.05841064453125,
        532.7606201171875,
        253.45187377929688,
        1
      ],
      "name": "Light"
    },
    {
      "children": [
        15
      ],
      "matrix": [
        1,
        0,
        0,
        0,
        0,
        2.2204460492503131e-16,
        1,
        0,
        0,
        -1,
        2.2204460492503131e-16,
        0,
        0,
        0,
        0,
        1
      ],
      "name": ""
    },
    {
      "name": ""
    },
    {
      "children": [
        17
      ],
      "matrix": [
        -1.9637702716646592,
        2.5640936920749922,
        -19.746014761286094,
        0,
        -12.75517701388946,
        15.074305419783705,
        3.2259759571265962,
        0,
        15.290039224747106,
        12.904532045552651,
        0.1550846979533384,
        0,
        793.05841064453125,
        532.7606201171875,
        -244.86669921875,
        1
      ],
      "name": "Light.001"
    },
    {
      "children": [
        18
      ],
      "matrix": [
        1,
        0,
        0,
        0,
        0,
        2.2204460492503131e-16,
        1,
        0,
        0,
        -1,
        2.2204460492503131e-16,
        0,
        0,
        0,
        0,
        1
      ],
      "name": ""
    },
    {
      "name": ""
    },
    {
      "children": [
        20
      ],
      "matrix": [
        1.5575812528153303,
        -18.437730319475328,
        -7.6131587877642293,
        0,
        8.0885359982084264,
        7.5641485184293042,
        -16.664197080668572,
        0,
        18.234193448588517,
        -1.780425621940732,
        8.0424232639626805,
        0,
        445.43075561523438,
        2508.023681640625,
        -1989.0770263671875,
        1
      ],
      "name": "Light.002"
    },
    {
      "children": [
        21
      ],
      "matrix": [
        1,
        0,
        0,
        0,
        0,
        2.2204460492503131e-16,
        1,
        0,
        0,
        -1,
        2.2204460492503131e-16,
        0,
        0,
        0,
        0,
        1
      ],
      "name": ""
    },
    {
      "name": ""
    },
    {
      "children": [
        23
      ],
      "matrix": [
        -1.3312112952937925,
        -19.932292568791205,
        -1.125903430110287,
        0,
        11.897974791652107,
        0.11401773690904358,
        -16.086062835865523,
        0,
        16.031292599600608,
        -1.7397654262833155,
        11.845132836740991,
        0,
        -1057.8111572265625,
        970.61224365234375,
        -1661.6380615234375,
        1
      ],
      "name": "Light.003"
    },
    {
      "children": [
        24
      ],
      "matrix": [
        1,
        0,
        0,
        0,
        0,
        2.2204460492503131e-16,
        1,
        0,
        0,
        -1,
        2.2204460492503131e-16,
        0,
        0,
        0,
        0,
        1
      ],
      "name": ""
    },
    {
      "name": ""
    }
  ],
  "scene": 0,
  "scenes": [
    {
      "name": "OSG_Scene",
      "nodes": [
        0
      ]
    }
  ]
}

